<?xml version="1.0" encoding="UTF-8" standalone="no"?>
<!DOCTYPE svg PUBLIC "-//W3C//DTD SVG 1.1//EN" "http://www.w3.org/Graphics/SVG/1.1/DTD/svg11.dtd">
<svg xmlns="http://www.w3.org/2000/svg" xmlns:xl="http://www.w3.org/1999/xlink" version="1.1" viewBox="246 40 145 144" width="145pt" height="12pc" xmlns:dc="http://purl.org/dc/elements/1.1/">
  <metadata> Produced by OmniGraffle 7.2.2 
    <dc:date>2022-01-18 18:37:59 +0000</dc:date>
  </metadata>
  <defs/>
  <g stroke="none" stroke-opacity="1" stroke-dasharray="none" fill="none" fill-opacity="1">
    <title>Canvas 2</title>
    <g>
      <title>Layer 1</title>
      <path d="M 310.00048 113 L 310.00048 113 C 310.00048 110.46665 310.85047 108.33334 312.55048 106.6 C 314.2505 104.86666 316.50047 104 319.30048 104 C 322.1005 104 324.35047 104.86666 326.05048 106.6 C 327.7505 108.33334 328.60048 110.46665 328.60048 113 C 328.60048 115.53335 327.7505 117.66666 326.05048 119.4 C 324.35047 121.13334 322.1005 122 319.30048 122 C 316.50047 122 314.2505 121.13334 312.55048 119.4 C 310.85047 117.66666 310.00048 115.53335 310.00048 113 Z M 327.80048 175 L 327.80048 175 C 327.06714 175.13333 325.98382 175.31667 324.55048 175.55 C 323.11714 175.78333 321.66715 175.9 320.20048 175.9 C 318.7338 175.9 317.41715 175.8 316.25048 175.6 C 315.0838 175.4 314.1005 175 313.30048 174.4 C 312.50048 173.8 311.8838 172.98334 311.45048 171.95 C 311.01714 170.91666 310.80048 169.56667 310.80048 167.9 L 310.80048 127.2 C 311.5338 127.06667 312.61714 126.88333 314.05048 126.65 C 315.48382 126.41667 316.9338 126.3 318.40048 126.3 C 319.86715 126.3 321.1838 126.4 322.35048 126.6 C 323.51715 126.8 324.50048 127.2 325.30048 127.8 C 326.1005 128.4 326.71714 129.21666 327.15048 130.25 C 327.5838 131.28334 327.80048 132.63332 327.80048 134.3 L 327.80048 175 Z M 263.34367 113.57495 C 264.15068 117.23256 264.96055 120.82542 265.77328 124.35355 C 267.87607 133.48193 270.0744 142.99263 272.36836 152.88595 L 273.05654 152.88595 C 275.1211 143.2986 277.24297 132.84448 279.42222 121.52326 C 281.60148 110.20204 283.6851 98.93199 285.6732 87.71276 C 287.04958 86.79483 288.5215 86.02989 290.08904 85.41793 C 291.65657 84.80597 293.43436 84.5 295.42245 84.5 C 298.25166 84.5 300.66027 85.34143 302.64836 87.02431 C 304.63645 88.7072 305.63048 91.48646 305.63048 95.3622 C 305.63048 97.60604 305.22904 100.86977 304.42616 105.15347 C 303.62328 109.43718 302.591 114.25627 301.32934 119.6109 C 300.06767 124.96554 298.6531 130.54957 297.08556 136.36317 C 295.51802 142.17677 293.9505 147.6588 292.38298 152.80945 C 290.81545 157.9601 289.3435 162.49871 287.96715 166.42544 C 286.59078 170.35217 285.48205 173.08044 284.64093 174.61034 C 283.57042 175.83425 281.90733 176.90517 279.6516 177.8231 C 277.3959 178.74104 274.92994 179.2 272.25366 179.2 C 269.04213 179.2 266.28943 178.56255 263.99548 177.28764 C 261.70153 176.01273 260.13402 174.25338 259.2929 172.00953 C 258.4518 169.6637 257.41953 166.62945 256.1961 162.9067 C 254.97264 159.18396 253.69187 155.02781 252.35374 150.43813 C 251.0156 145.84844 249.63925 140.97835 248.22465 135.8277 C 247.63996 133.69885 247.06508 131.55694 246.5 129.40196 L 246.50048 184 L 318.50048 184 C 334.1543 184 349.80816 180.59663 362.50223 172.31 L 362.50223 172.31 L 342.49048 172.31 C 341.4238 171.37666 340.5738 170.27667 339.94048 169.01 C 339.30714 167.74333 338.99048 166.31 338.99048 164.71 C 338.99048 163.37666 339.30714 162.06 339.94048 160.76 C 340.5738 159.46 341.35714 158.24334 342.29048 157.11 L 359.4905 136.91 L 341.09048 136.91 C 340.69048 136.17666 340.30715 135.24334 339.94048 134.11 C 339.5738 132.97666 339.39048 131.74334 339.39048 130.41 C 339.39048 128.07666 339.90714 126.39334 340.94048 125.36 C 341.9738 124.32666 343.35714 123.81 345.09048 123.81 L 376.5905 123.81 C 377.65715 124.74334 378.50714 125.84333 379.1405 127.11 C 379.7738 128.37667 380.0905 129.80999 380.0905 131.41 C 380.0905 132.74334 379.7738 134.06 379.1405 135.36 C 378.50714 136.66 377.7238 137.87666 376.7905 139.01 L 359.9905 159.21 L 376.68434 159.21 C 385.2212 148.07872 390.5005 132.67899 390.5005 112 C 390.5005 58 354.5005 40 318.50048 40 L 246.50048 40 L 246.50047 40.636863 L 249.06982 40.137434 Z" fill="#7253ed"/>
    </g>
  </g>
</svg>
